<?xml version="1.0" encoding="UTF-8" standalone="no"?><!DOCTYPE svg PUBLIC "-//W3C//DTD SVG 1.1//EN" "http://www.w3.org/Graphics/SVG/1.1/DTD/svg11.dtd"><svg width="100%" height="100%" viewBox="0 0 1645 633" version="1.1" xmlns="http://www.w3.org/2000/svg" xmlns:xlink="http://www.w3.org/1999/xlink" xml:space="preserve" xmlns:serif="http://www.serif.com/" style="fill-rule:evenodd;clip-rule:evenodd;stroke-linejoin:round;stroke-miterlimit:2;"><rect x="1060.46" y="0" width="583.673" height="632.4" style="fill:#ff2654;"/><g transform="matrix(0.832229,0,0,0.832229,-268.137,-225.528)"><g transform="matrix(713.348,0,0,713.348,305.978,849.539)"><path d="M0.331,-0.545l-0,0.085l-0.118,-0l0,0.46l-0.106,-0l-0,-0.46l-0.084,-0l-0,-0.085l0.084,-0l-0,-0.064c-0,-0.034 0.007,-0.062 0.022,-0.085c0.015,-0.022 0.035,-0.039 0.06,-0.05c0.025,-0.012 0.051,-0.017 0.08,-0.017c0.021,-0 0.04,0.001 0.055,0.005c0.015,0.003 0.026,0.006 0.034,0.009l-0.025,0.086c-0.005,-0.002 -0.012,-0.003 -0.019,-0.005c-0.008,-0.002 -0.018,-0.003 -0.029,-0.003c-0.026,-0 -0.044,0.006 -0.055,0.019c-0.011,0.013 -0.017,0.031 -0.017,0.056l0,0.049l0.118,-0Z" style="fill:#ff2654;fill-rule:nonzero;"/></g><g transform="matrix(713.348,0,0,713.348,550.598,849.539)"><path d="M0.23,0.012c-0.034,0 -0.066,-0.006 -0.093,-0.019c-0.028,-0.013 -0.05,-0.032 -0.067,-0.056c-0.016,-0.025 -0.024,-0.055 -0.024,-0.091c-0,-0.031 0.006,-0.057 0.018,-0.076c0.012,-0.02 0.028,-0.036 0.048,-0.048c0.02,-0.011 0.042,-0.02 0.067,-0.026c0.025,-0.006 0.05,-0.01 0.076,-0.013c0.033,-0.004 0.059,-0.007 0.079,-0.01c0.021,-0.002 0.035,-0.006 0.045,-0.012c0.009,-0.005 0.014,-0.015 0.014,-0.027l-0,-0.003c-0,-0.031 -0.009,-0.055 -0.026,-0.072c-0.018,-0.017 -0.044,-0.026 -0.078,-0.026c-0.036,0 -0.064,0.008 -0.084,0.024c-0.021,0.015 -0.035,0.033 -0.043,0.052l-0.099,-0.022c0.017,-0.05 0.047,-0.086 0.088,-0.107c0.042,-0.022 0.087,-0.033 0.137,-0.033c0.021,0 0.045,0.003 0.069,0.008c0.024,0.005 0.047,0.015 0.069,0.028c0.022,0.014 0.039,0.033 0.053,0.058c0.013,0.025 0.02,0.057 0.02,0.097l0,0.362l-0.103,0l-0,-0.075l-0.005,0c-0.01,0.021 -0.028,0.04 -0.054,0.059c-0.026,0.019 -0.062,0.028 -0.107,0.028Zm0.023,-0.085c0.03,-0 0.055,-0.006 0.076,-0.018c0.021,-0.011 0.037,-0.026 0.048,-0.045c0.011,-0.019 0.016,-0.039 0.016,-0.061l0,-0.07c-0.005,0.005 -0.016,0.009 -0.033,0.013c-0.016,0.004 -0.034,0.007 -0.053,0.01c-0.019,0.002 -0.034,0.004 -0.045,0.006c-0.031,0.004 -0.057,0.012 -0.079,0.024c-0.022,0.013 -0.033,0.033 -0.033,0.061c-0,0.027 0.01,0.046 0.029,0.06c0.019,0.013 0.044,0.02 0.074,0.02Z" style="fill:#ff2654;fill-rule:nonzero;"/></g><g transform="matrix(713.348,0,0,713.348,950.249,849.539)"><path d="M0.48,-0.412l-0.096,0.017c-0.006,-0.018 -0.018,-0.035 -0.034,-0.05c-0.017,-0.016 -0.042,-0.023 -0.075,-0.023c-0.03,-0 -0.055,0.006 -0.076,0.02c-0.02,0.013 -0.03,0.03 -0.03,0.051c0,0.019 0.007,0.034 0.02,0.045c0.014,0.011 0.036,0.02 0.066,0.027l0.087,0.02c0.099,0.023 0.149,0.072 0.149,0.147c-0,0.033 -0.01,0.062 -0.028,0.088c-0.019,0.025 -0.045,0.045 -0.079,0.059c-0.033,0.015 -0.072,0.022 -0.116,0.022c-0.062,0 -0.111,-0.013 -0.15,-0.039c-0.038,-0.026 -0.062,-0.064 -0.071,-0.112l0.103,-0.016c0.013,0.054 0.052,0.081 0.117,0.081c0.035,0 0.063,-0.007 0.083,-0.021c0.021,-0.015 0.032,-0.033 0.032,-0.054c-0,-0.035 -0.026,-0.058 -0.077,-0.069l-0.093,-0.02c-0.051,-0.012 -0.088,-0.03 -0.113,-0.056c-0.024,-0.025 -0.036,-0.057 -0.036,-0.096c0,-0.032 0.009,-0.06 0.027,-0.085c0.018,-0.024 0.043,-0.043 0.075,-0.056c0.031,-0.014 0.068,-0.021 0.109,-0.021c0.059,0 0.105,0.013 0.139,0.039c0.034,0.025 0.056,0.059 0.067,0.102Z" style="fill:#ff2654;fill-rule:nonzero;"/></g><g transform="matrix(713.348,0,0,713.348,1326.09,849.539)"><path d="M0.326,-0.545l-0,0.085l-0.112,-0l0,0.3c0,0.031 0.007,0.05 0.02,0.059c0.013,0.009 0.028,0.014 0.045,0.014c0.009,-0 0.016,-0.001 0.023,-0.002c0.006,-0.001 0.011,-0.002 0.015,-0.003l0.019,0.088c-0.006,0.002 -0.015,0.005 -0.027,0.007c-0.011,0.003 -0.025,0.004 -0.042,0.004c-0.028,0.001 -0.054,-0.004 -0.078,-0.015c-0.025,-0.01 -0.044,-0.026 -0.059,-0.048c-0.015,-0.022 -0.022,-0.049 -0.022,-0.082l-0,-0.322l-0.08,-0l0,-0.085l0.08,-0l-0,-0.131l0.106,-0l0,0.131l0.112,-0Z" style="fill:#ff2654;fill-rule:nonzero;"/></g><g transform="matrix(713.348,0,0,713.348,1584.89,849.539)"><path d="M0.071,0.205l0,-0.75l0.104,-0l0,0.088l0.009,-0c0.006,-0.011 0.015,-0.025 0.027,-0.039c0.011,-0.015 0.027,-0.028 0.048,-0.04c0.021,-0.011 0.048,-0.017 0.082,-0.017c0.044,0 0.083,0.012 0.117,0.034c0.035,0.022 0.062,0.054 0.082,0.096c0.02,0.042 0.03,0.092 0.03,0.151c-0,0.059 -0.01,0.11 -0.03,0.152c-0.02,0.042 -0.047,0.074 -0.081,0.097c-0.034,0.022 -0.073,0.034 -0.117,0.034c-0.034,-0 -0.061,-0.006 -0.081,-0.017c-0.021,-0.011 -0.038,-0.024 -0.05,-0.039c-0.011,-0.015 -0.021,-0.028 -0.027,-0.04l-0.006,0l-0,0.29l-0.107,-0Zm0.104,-0.478c0,0.058 0.013,0.104 0.037,0.14c0.025,0.035 0.06,0.053 0.106,0.053c0.032,0 0.058,-0.008 0.08,-0.025c0.021,-0.017 0.037,-0.04 0.048,-0.069c0.011,-0.029 0.016,-0.062 0.016,-0.099c0,-0.036 -0.005,-0.068 -0.016,-0.097c-0.011,-0.028 -0.027,-0.051 -0.048,-0.068c-0.021,-0.016 -0.048,-0.024 -0.08,-0.024c-0.047,-0 -0.082,0.017 -0.106,0.052c-0.024,0.034 -0.037,0.08 -0.037,0.137Z" style="fill:#fff;fill-rule:nonzero;"/></g><g transform="matrix(713.348,0,0,713.348,2018.74,849.539)"><path d="M0.331,-0.545l-0,0.085l-0.118,-0l0,0.46l-0.106,-0l-0,-0.46l-0.084,-0l-0,-0.085l0.084,-0l-0,-0.064c-0,-0.034 0.007,-0.062 0.022,-0.085c0.015,-0.022 0.035,-0.039 0.06,-0.05c0.025,-0.012 0.051,-0.017 0.08,-0.017c0.021,-0 0.04,0.001 0.055,0.005c0.015,0.003 0.026,0.006 0.034,0.009l-0.025,0.086c-0.005,-0.002 -0.012,-0.003 -0.019,-0.005c-0.008,-0.002 -0.018,-0.003 -0.029,-0.003c-0.026,-0 -0.044,0.006 -0.055,0.019c-0.011,0.013 -0.017,0.031 -0.017,0.056l0,0.049l0.118,-0Z" style="fill:#fff;fill-rule:nonzero;"/></g></g></svg>